# xmcd
#
# Track frame offsets:
#	150
#	15862
#	38730
#	55460
#	72417
#	86470
#	100307
#	111420
#	128285
#	147030
#
# Disc length: 2177 seconds
#
# Revision: 3
# Processed by: cddbd v1.5.1PL0 Copyright (c) Steve Scherf et al.
# Submitted via: MusicManager 7.2.0.0 
#
DISCID=7b087f0a
DTITLE=Various Artist - New Country Volume 4 Number 3
DYEAR=1997
DGENRE=Country
TTITLE0=Jerry Jeff Walker - Down In Texas
TTITLE1=Kathy Mattea - Patiently Waiting
TTITLE2=John Jennings - Everybody Loves Me
TTITLE3=Don Williams - Leaving For The Flatlands
TTITLE4=Chris Wall - Runaway Cadillac
TTITLE5=Vern Gosdin - The Number
TTITLE6=Desperate Men - That Old Friend Of Mine
TTITLE7=Chris Smither - Winsome Smile
TTITLE8=Eddie Adcock - Lost At Sea
TTITLE9=The Holmes Brothers - You Got To Go
EXTD=
EXTT0=
EXTT1=
EXTT2=
EXTT3=
EXTT4=
EXTT5=
EXTT6=
EXTT7=
EXTT8=
EXTT9=
PLAYORDER=
